<svg width="16" height="20" viewBox="0 0 16 20" fill="none" xmlns="http://www.w3.org/2000/svg">
<path d="M0 10C0 9.73478 0.105356 9.48043 0.292892 9.29289C0.480429 9.10536 0.734783 9 1 9H8.59L6.29 6.71C6.19676 6.61676 6.1228 6.50607 6.07234 6.38425C6.02188 6.26243 5.99591 6.13186 5.99591 6C5.99591 5.86814 6.02188 5.73757 6.07234 5.61575C6.1228 5.49393 6.19676 5.38324 6.29 5.29C6.38324 5.19676 6.49393 5.1228 6.61575 5.07234C6.73757 5.02188 6.86814 4.99591 7 4.99591C7.13186 4.99591 7.26243 5.02188 7.38425 5.07234C7.50607 5.1228 7.61676 5.19676 7.71 5.29L11.71 9.29C11.801 9.3851 11.8724 9.49725 11.92 9.62C12.02 9.86346 12.02 10.1365 11.92 10.38C11.8724 10.5028 11.801 10.6149 11.71 10.71L7.71 14.71C7.61704 14.8037 7.50644 14.8781 7.38458 14.9289C7.26272 14.9797 7.13201 15.0058 7 15.0058C6.86799 15.0058 6.73728 14.9797 6.61542 14.9289C6.49356 14.8781 6.38296 14.8037 6.29 14.71C6.19627 14.617 6.12188 14.5064 6.07111 14.3846C6.02034 14.2627 5.9942 14.132 5.9942 14C5.9942 13.868 6.02034 13.7373 6.07111 13.6154C6.12188 13.4936 6.19627 13.383 6.29 13.29L8.59 11H1C0.734783 11 0.480429 10.8946 0.292892 10.7071C0.105356 10.5196 0 10.2652 0 10ZM3 0H13C13.7956 0 14.5587 0.316071 15.1213 0.87868C15.6839 1.44129 16 2.20435 16 3V17C16 17.7956 15.6839 18.5587 15.1213 19.1213C14.5587 19.6839 13.7956 20 13 20H3C2.20435 20 1.44129 19.6839 0.878679 19.1213C0.316071 18.5587 0 17.7956 0 17V14C0 13.7348 0.105356 13.4804 0.292892 13.2929C0.480429 13.1054 0.734783 13 1 13C1.26522 13 1.51957 13.1054 1.70711 13.2929C1.89464 13.4804 2 13.7348 2 14V17C2 17.2652 2.10536 17.5196 2.29289 17.7071C2.48043 17.8946 2.73478 18 3 18H13C13.2652 18 13.5196 17.8946 13.7071 17.7071C13.8946 17.5196 14 17.2652 14 17V3C14 2.73478 13.8946 2.48043 13.7071 2.29289C13.5196 2.10536 13.2652 2 13 2H3C2.73478 2 2.48043 2.10536 2.29289 2.29289C2.10536 2.48043 2 2.73478 2 3V6C2 6.26522 1.89464 6.51957 1.70711 6.70711C1.51957 6.89464 1.26522 7 1 7C0.734783 7 0.480429 6.89464 0.292892 6.70711C0.105356 6.51957 0 6.26522 0 6V3C0 2.20435 0.316071 1.44129 0.878679 0.87868C1.44129 0.316071 2.20435 0 3 0Z" fill="white"/>
</svg>
