<svg width="10" height="10" viewBox="0 0 10 10" fill="none" xmlns="http://www.w3.org/2000/svg">
<path d="M8.78125 0.0625C9.33984 0.0625 9.8125 0.535156 9.8125 1.09375V8.65625C9.8125 9.23633 9.33984 9.6875 8.78125 9.6875H1.21875C0.638672 9.6875 0.1875 9.23633 0.1875 8.65625V1.09375C0.1875 0.535156 0.638672 0.0625 1.21875 0.0625H8.78125ZM8.09375 5.47656V4.27344C8.09375 4.14453 7.96484 4.01562 7.83594 4.01562H5.85938V2.03906C5.85938 1.91016 5.73047 1.78125 5.60156 1.78125H4.39844C4.24805 1.78125 4.14062 1.91016 4.14062 2.03906V4.01562H2.16406C2.01367 4.01562 1.90625 4.14453 1.90625 4.27344V5.47656C1.90625 5.62695 2.01367 5.73438 2.16406 5.73438H4.14062V7.71094C4.14062 7.86133 4.24805 7.96875 4.39844 7.96875H5.60156C5.73047 7.96875 5.85938 7.86133 5.85938 7.71094V5.73438H7.83594C7.96484 5.73438 8.09375 5.62695 8.09375 5.47656Z" fill="white"/>
</svg>
