<svg width="24" height="23" viewBox="0 0 24 23" fill="none" xmlns="http://www.w3.org/2000/svg">
<path id="Vector" d="M6.84139 0H16.5014C20.1814 0 23.1714 2.99 23.1714 6.67V16.33C23.1714 18.099 22.4687 19.7955 21.2178 21.0464C19.9669 22.2973 18.2704 23 16.5014 23H6.84139C3.16139 23 0.171387 20.01 0.171387 16.33V6.67C0.171387 4.90101 0.874117 3.20447 2.12498 1.9536C3.37585 0.70273 5.07239 0 6.84139 0ZM6.61139 2.3C5.51339 2.3 4.46037 2.73618 3.68396 3.51258C2.90756 4.28898 2.47139 5.342 2.47139 6.44V16.56C2.47139 18.8485 4.32289 20.7 6.61139 20.7H16.7314C17.8294 20.7 18.8824 20.2638 19.6588 19.4874C20.4352 18.711 20.8714 17.658 20.8714 16.56V6.44C20.8714 4.1515 19.0199 2.3 16.7314 2.3H6.61139ZM17.7089 4.025C18.0901 4.025 18.4558 4.17645 18.7254 4.44603C18.9949 4.71562 19.1464 5.08125 19.1464 5.4625C19.1464 5.84375 18.9949 6.20938 18.7254 6.47897C18.4558 6.74855 18.0901 6.9 17.7089 6.9C17.3276 6.9 16.962 6.74855 16.6924 6.47897C16.4228 6.20938 16.2714 5.84375 16.2714 5.4625C16.2714 5.08125 16.4228 4.71562 16.6924 4.44603C16.962 4.17645 17.3276 4.025 17.7089 4.025ZM11.6714 5.75C13.1964 5.75 14.6589 6.3558 15.7373 7.43414C16.8156 8.51247 17.4214 9.97501 17.4214 11.5C17.4214 13.025 16.8156 14.4875 15.7373 15.5659C14.6589 16.6442 13.1964 17.25 11.6714 17.25C10.1464 17.25 8.68386 16.6442 7.60552 15.5659C6.52719 14.4875 5.92139 13.025 5.92139 11.5C5.92139 9.97501 6.52719 8.51247 7.60552 7.43414C8.68386 6.3558 10.1464 5.75 11.6714 5.75ZM11.6714 8.05C10.7564 8.05 9.87887 8.41348 9.23187 9.06048C8.58487 9.70748 8.22139 10.585 8.22139 11.5C8.22139 12.415 8.58487 13.2925 9.23187 13.9395C9.87887 14.5865 10.7564 14.95 11.6714 14.95C12.5864 14.95 13.4639 14.5865 14.1109 13.9395C14.7579 13.2925 15.1214 12.415 15.1214 11.5C15.1214 10.585 14.7579 9.70748 14.1109 9.06048C13.4639 8.41348 12.5864 8.05 11.6714 8.05Z" fill="white"/>
</svg>
