<svg width="26" height="21" viewBox="0 0 26 21" fill="none" xmlns="http://www.w3.org/2000/svg">
<path id="Vector" d="M2.67139 20.5C1.98389 20.5 1.39514 20.255 0.905138 19.765C0.415139 19.275 0.170556 18.6867 0.171389 18V3C0.171389 2.3125 0.416389 1.72375 0.906389 1.23375C1.39639 0.743752 1.98472 0.499169 2.67139 0.500002H22.6714C23.3589 0.500002 23.9476 0.745002 24.4376 1.235C24.9276 1.725 25.1722 2.31334 25.1714 3V18C25.1714 18.6875 24.9264 19.2762 24.4364 19.7662C23.9464 20.2562 23.358 20.5008 22.6714 20.5H2.67139ZM12.6714 11.75L2.67139 5.5V18H22.6714V5.5L12.6714 11.75ZM12.6714 9.25L22.6714 3H2.67139L12.6714 9.25ZM2.67139 5.5V3V18V5.5Z" fill="white"/>
</svg>
