<svg width="25" height="25" viewBox="0 0 25 25" fill="none" xmlns="http://www.w3.org/2000/svg">
<path id="Vector" fill-rule="evenodd" clip-rule="evenodd" d="M3.18309 1.072C4.74321 -0.563102 7.31222 -0.272567 8.61852 1.56794L10.2363 3.84357C11.3003 5.34084 11.2055 7.4327 9.94277 8.75564L9.63766 9.07726C9.60321 9.21229 9.5997 9.35402 9.62741 9.49076C9.70817 10.0421 10.1453 11.2097 11.9759 13.1285C13.8065 15.0474 14.9218 15.5069 15.4525 15.5934C15.5861 15.6233 15.7246 15.6191 15.8564 15.5812L16.3794 15.0326C17.5024 13.8569 19.2253 13.6366 20.6149 14.4326L23.0634 15.8379C25.162 17.0379 25.6914 20.0433 23.9736 21.8446L22.152 23.7527C21.5777 24.354 20.8059 24.8553 19.865 24.9486C17.5447 25.177 12.1387 24.8851 6.45589 18.9298C1.1525 13.3704 0.134638 8.52186 0.00516238 6.13272C-0.0589346 4.92463 0.482044 3.90303 1.17173 3.18142L3.18309 1.072ZM7.08019 2.78278C6.43025 1.86793 5.2201 1.79496 4.5381 2.50981L2.52546 4.61788C2.10242 5.06112 1.89987 5.5503 1.92551 6.01786C2.02806 7.91647 2.84851 12.2907 7.81218 17.4933C13.0194 22.95 17.828 23.1135 19.6868 22.9297C20.0662 22.8932 20.4431 22.6851 20.7957 22.3162L22.616 20.4068C23.357 19.6311 23.1942 18.2176 22.1456 17.6176L19.6971 16.2136C19.0202 15.8271 18.2279 15.9542 17.7357 16.4704L17.1524 17.0825L16.473 16.3636C17.1524 17.0825 17.1511 17.0839 17.1498 17.0839L17.1486 17.0866L17.1447 17.0906L17.1357 17.0987L17.1165 17.1176C17.062 17.1701 17.0037 17.218 16.9422 17.2609C16.8396 17.3325 16.7037 17.4122 16.5332 17.4785C16.1871 17.6149 15.7282 17.6879 15.1615 17.596C14.0501 17.4163 12.5772 16.6177 10.6196 14.5663C8.66339 12.515 7.89935 10.9718 7.72757 9.80157C7.63912 9.20428 7.70963 8.72051 7.84038 8.35565C7.91289 8.15061 8.01588 7.95903 8.14549 7.78809L8.18651 7.7408L8.20445 7.72053L8.21215 7.71242L8.21599 7.70837L8.21856 7.70566L8.58776 7.31918C9.13643 6.74217 9.21334 5.78678 8.69672 5.05841L7.08019 2.78278Z" fill="white"/>
</svg>
