<svg width="26" height="23" viewBox="0 0 26 23" fill="none" xmlns="http://www.w3.org/2000/svg">
<path id="Vector" fill-rule="evenodd" clip-rule="evenodd" d="M5.42092 13.825C5.47409 13.8427 5.52876 13.8555 5.58425 13.8633C5.93433 14.6882 6.28243 15.514 6.62857 16.3405C7.25096 17.8278 7.87829 19.3596 8.01564 19.8001C8.18763 20.3421 8.36828 20.7108 8.56626 20.9632C8.66896 21.0919 8.7865 21.2058 8.92509 21.2924C8.99728 21.3375 9.07452 21.3741 9.15523 21.4013C9.55118 21.5497 9.91249 21.4879 10.1389 21.4124C10.2718 21.367 10.3982 21.3047 10.5151 21.2268L10.5213 21.2243L14.018 19.0441L18.0579 22.14C18.1173 22.1857 18.1817 22.2241 18.251 22.255C18.736 22.4654 19.2062 22.5396 19.6492 22.4802C20.0897 22.4184 20.4398 22.234 20.7009 22.0249C21.0007 21.7833 21.2397 21.4747 21.3988 21.1241L21.4099 21.0969L21.4136 21.087L21.4161 21.082V21.0796L21.4173 21.0783C21.4388 21.0251 21.4554 20.97 21.4668 20.9137L25.1541 2.32262C25.1658 2.26311 25.1716 2.20261 25.1714 2.14197C25.1714 1.59754 24.966 1.07909 24.4847 0.766041C24.0714 0.497537 23.6124 0.485164 23.3216 0.507436C23.0098 0.532183 22.7203 0.608898 22.526 0.670766C22.4173 0.705232 22.3099 0.744033 22.2043 0.787076L22.1907 0.793263L1.50967 8.9053L1.5072 8.90654C1.43722 8.93228 1.36829 8.96076 1.30056 8.99192C1.13656 9.06565 0.979249 9.15341 0.830368 9.25424C0.549491 9.44602 -0.0976416 9.97313 0.0124822 10.8442C0.0990965 11.5371 0.574237 11.964 0.865014 12.1694C1.02339 12.282 1.17435 12.3624 1.28571 12.4157C1.33521 12.4404 1.44162 12.4825 1.4874 12.5023L1.49977 12.506L5.42092 13.825ZM22.9145 2.5008H22.9121C22.9014 2.50553 22.8907 2.51007 22.8799 2.51441L2.17413 10.6376C2.16347 10.6419 2.15275 10.646 2.14196 10.65L2.12958 10.6537C2.09176 10.6685 2.0546 10.6851 2.01822 10.7032C2.05266 10.7229 2.08819 10.7407 2.12463 10.7564L6.01237 12.0655C6.08185 12.0889 6.1483 12.1205 6.21035 12.1595L19.0503 4.64265L19.0627 4.63646C19.1125 4.60615 19.1637 4.57808 19.2161 4.55232C19.3052 4.50654 19.4475 4.43972 19.6083 4.39023C19.7197 4.35558 20.0501 4.25783 20.4064 4.37291C20.5954 4.43248 20.7639 4.54402 20.8925 4.69477C21.0212 4.84551 21.1049 5.02941 21.134 5.22544C21.1801 5.39712 21.1813 5.57775 21.1377 5.75007C21.0511 6.09034 20.8135 6.35513 20.5957 6.55806C20.4101 6.73129 18.0035 9.05255 15.629 11.3441L12.3958 14.4622L11.8205 15.019L19.0862 20.5896C19.1842 20.6307 19.2908 20.6477 19.3967 20.6391C19.4501 20.6318 19.5004 20.6095 19.5415 20.5747C19.5917 20.5324 19.6347 20.4822 19.669 20.4262L19.6714 20.425L23.2474 2.39315C23.1347 2.42025 23.0243 2.45582 22.917 2.49956L22.9145 2.5008ZM12.4453 17.8365L10.9952 16.7253L10.6438 18.9587L12.4453 17.8365ZM9.66502 14.5204L11.1065 13.1284L14.3397 10.0078L15.5437 8.84715L7.47615 13.5701L7.51946 13.6716C8.02826 14.8736 8.53146 16.0779 9.02903 17.2846L9.37919 15.0574C9.41088 14.8508 9.51164 14.6623 9.66502 14.5204Z" fill="white"/>
</svg>
