<svg width="18" height="18" viewBox="0 0 18 18" fill="none" xmlns="http://www.w3.org/2000/svg">
<path d="M7.5 6.6875C8.82031 6.6875 9.9375 7.80469 9.9375 9.125C9.9375 10.4707 8.82031 11.5625 7.5 11.5625C6.1543 11.5625 5.0625 10.4707 5.0625 9.125C5.0625 7.80469 6.1543 6.6875 7.5 6.6875ZM13.7461 8.74414C14.0762 8.89648 14.0762 9.37891 13.7461 9.53125L11.334 10.7246L12.1973 13.2891C12.2988 13.6191 11.9688 13.9492 11.6387 13.8477L9.07422 12.9844L7.88086 15.3965C7.72852 15.7266 7.24609 15.7266 7.09375 15.3965L5.90039 12.9844L3.33594 13.8477C3.00586 13.9492 2.67578 13.6191 2.77734 13.2891L3.64062 10.7246L1.22852 9.53125C0.898438 9.37891 0.898438 8.89648 1.22852 8.74414L3.64062 7.55078L2.77734 4.98633C2.67578 4.65625 3.00586 4.32617 3.33594 4.42773L5.90039 5.29102L7.09375 2.87891C7.24609 2.54883 7.72852 2.54883 7.88086 2.87891L9.07422 5.29102L11.6387 4.42773C11.9688 4.32617 12.2988 4.65625 12.1973 4.98633L11.334 7.55078L13.7461 8.74414ZM9.78516 11.4355C11.0547 10.166 11.0547 8.10938 9.78516 6.83984C8.51562 5.57031 6.45898 5.57031 5.18945 6.83984C3.91992 8.10938 3.91992 10.166 5.18945 11.4355C6.45898 12.7051 8.51562 12.7051 9.78516 11.4355Z" fill="#F68F57"/>
</svg>
