<svg width="32" height="54" viewBox="0 0 32 54" fill="none" xmlns="http://www.w3.org/2000/svg">
<path id="Vector" d="M31.5162 29.0016C30.771 27.4624 28.6685 26.1663 25.874 28.3535C22.0681 31.4319 16 31.4319 16 31.4319C16 31.4319 9.9319 31.4319 6.12603 28.3535C3.33152 26.1663 1.22897 27.4624 0.48377 29.0016C-0.846953 31.702 0.643457 33.0251 4.02349 35.2124C6.92447 37.1026 10.89 37.8047 13.445 38.0748L11.3159 40.235C8.28181 43.2864 5.35422 46.2298 3.35813 48.282C2.16048 49.5242 2.16048 51.4954 3.35813 52.6566L3.73073 53.0886C4.92838 54.3038 6.89785 54.3038 8.0955 53.0886L16 45.0416C19.0607 48.093 21.9616 51.0364 23.9843 53.0886C25.182 54.3038 27.1248 54.3038 28.3491 53.0886L28.6951 52.6566C29.9194 51.4954 29.9194 49.5242 28.6951 48.282L20.764 40.235L18.6614 38.0478C21.1898 37.8047 25.1021 37.0756 27.9765 35.2124C31.3565 33.0251 32.847 31.702 31.5162 29.0016ZM16 6.93987C19.6728 6.93987 22.6536 9.96425 22.6536 13.6637C22.6536 17.3902 19.6728 20.3876 16 20.3876C12.3272 20.3876 9.34638 17.3902 9.34638 13.6637C9.34638 9.96425 12.3272 6.93987 16 6.93987ZM16 27.3274C23.452 27.3274 29.4669 21.2247 29.4669 13.6637C29.4669 10.0399 28.0481 6.56445 25.5225 4.00201C22.997 1.43957 19.5716 0 16 0C12.4284 0 9.00299 1.43957 6.47745 4.00201C3.95192 6.56445 2.53308 10.0399 2.53308 13.6637C2.53308 21.2247 8.54795 27.3274 16 27.3274Z" fill="#39405A"/>
</svg>
