<svg width="45" height="46" viewBox="0 0 45 46" fill="none" xmlns="http://www.w3.org/2000/svg">
<path id="Vector" d="M22.5 0.5C10.08 0.5 0 10.58 0 23C0 35.42 10.08 45.5 22.5 45.5C34.92 45.5 45 35.42 45 23C45 10.58 34.92 0.5 22.5 0.5ZM32.94 15.8C32.6025 19.355 31.14 27.995 30.3975 31.9775C30.0825 33.665 29.4525 34.2275 28.8675 34.295C27.5625 34.4075 26.5725 33.44 25.3125 32.6075C23.3325 31.3025 22.2075 30.4925 20.295 29.2325C18.0675 27.77 19.5075 26.96 20.79 25.655C21.1275 25.3175 26.8875 20.075 27 19.6025C27.0156 19.5309 27.0135 19.4566 26.9939 19.3861C26.9743 19.3155 26.9378 19.2508 26.8875 19.1975C26.7525 19.085 26.5725 19.13 26.415 19.1525C26.2125 19.1975 23.0625 21.29 16.92 25.43C16.02 26.0375 15.21 26.3525 14.49 26.33C13.68 26.3075 12.15 25.88 11.0025 25.4975C9.585 25.0475 8.4825 24.8 8.5725 24.0125C8.6175 23.6075 9.18 23.2025 10.2375 22.775C16.8075 19.9175 21.1725 18.0275 23.355 17.1275C29.61 14.5175 30.8925 14.0675 31.7475 14.0675C31.9275 14.0675 32.355 14.1125 32.625 14.3375C32.85 14.5175 32.9175 14.765 32.94 14.945C32.9175 15.08 32.9625 15.485 32.94 15.8Z" fill="#39405A"/>
</svg>
