<svg width="59" height="38" viewBox="0 0 59 38" fill="none" xmlns="http://www.w3.org/2000/svg">
<path id="Vector" fill-rule="evenodd" clip-rule="evenodd" d="M58.5311 30.9323C57.156 28.1349 55.344 25.5795 53.1646 23.3641C52.4356 22.532 51.6724 21.7313 50.8769 20.9639L50.7809 20.8695C50.4855 20.5797 50.1939 20.2861 49.9062 19.9886C52.8855 15.8038 55.4348 11.3234 57.5149 6.61658L57.5983 6.42763L57.6565 6.22846C57.932 5.30159 58.2454 3.53977 57.1332 1.94647C55.9805 0.302102 54.1378 0.0059108 52.9017 0.0059108H47.2217C46.0324 -0.0488356 44.8564 0.27784 43.8621 0.939188C42.8678 1.60054 42.106 2.56266 41.6859 3.68787C40.4635 6.62842 38.933 9.42839 37.1207 12.0399V5.31691C37.1207 4.44877 37.0398 2.99335 36.1171 1.76773C35.015 0.296995 33.42 0.0059108 32.3128 0.0059108H23.2987C22.1224 -0.0214273 20.9808 0.409244 20.1103 1.20874C19.2397 2.00823 18.707 3.1153 18.6223 4.30067L18.6147 4.41558V4.53048C18.6147 5.76886 19.1 6.68296 19.4893 7.25747C19.6637 7.51536 19.8482 7.75027 19.967 7.89837L19.9923 7.93156C20.1187 8.08987 20.2021 8.19456 20.2855 8.31201C20.508 8.61331 20.824 9.08313 20.915 10.2934V14.0545C19.1055 10.9939 17.6219 7.74833 16.4888 4.37217L16.4686 4.31599L16.4484 4.26237C16.14 3.44785 15.647 2.26309 14.6587 1.3592C13.506 0.299549 12.141 0.0059108 10.8998 0.0059108H5.13648C3.88016 0.0059108 2.36602 0.302102 1.23609 1.50474C0.12639 2.6895 0 4.10917 0 4.85986V5.20201L0.0707782 5.53395C1.66658 13.0173 4.95507 20.0261 9.67892 26.0119C11.8386 29.4521 14.7706 32.3297 18.2371 34.4112C21.7037 36.4927 25.6071 37.7196 29.6308 37.9923L29.7344 38H29.8406C31.6758 38 33.5893 37.8391 35.0276 36.8714C36.9665 35.5641 37.1207 33.5597 37.1207 32.5588V29.653C37.6186 30.0616 38.2354 30.608 38.9912 31.3434C39.9063 32.2677 40.6343 33.0695 41.2587 33.7691L41.5923 34.1419C42.0777 34.6883 42.5554 35.227 42.9902 35.6688C43.5362 36.2229 44.2111 36.8331 45.0554 37.2851C45.973 37.7728 46.9361 37.9949 47.9573 37.9949H53.7232C54.9391 37.9949 56.6807 37.7038 57.9067 36.2688C59.2414 34.7062 59.1403 32.7886 58.7207 31.4123L58.6448 31.1646L58.5311 30.9323ZM44.0721 31.2029C43.2887 30.3183 42.482 29.455 41.653 28.6138L41.6454 28.6062C38.2152 25.2664 36.6151 24.6867 35.4826 24.6867C34.8785 24.6867 34.2137 24.7531 33.7814 25.2996C33.5868 25.5602 33.4592 25.8655 33.4099 26.1881C33.3489 26.5628 33.3218 26.9422 33.329 27.3218V32.5588C33.329 33.2099 33.2228 33.4831 32.9245 33.6823C32.5277 33.9504 31.6808 34.1674 29.8634 34.1674C26.4109 33.9301 23.0635 32.8685 20.0964 31.0699C17.1293 29.2712 14.6271 26.7869 12.7957 23.8212L12.7755 23.788L12.7502 23.7573C8.3496 18.2246 5.2827 11.7341 3.79169 4.79858C3.8018 4.46664 3.87258 4.26493 3.98886 4.14236C4.10767 4.0147 4.39836 3.83596 5.13648 3.83596H10.8998C11.5394 3.83596 11.873 3.97895 12.1132 4.19599C12.3811 4.44622 12.6187 4.86752 12.9019 5.61821C14.3174 9.82105 16.2284 13.7532 18.0409 16.6411C18.9458 18.0863 19.8356 19.2889 20.6394 20.1392C21.0414 20.5631 21.4332 20.9154 21.8098 21.1657C22.1713 21.4057 22.5833 21.5972 23.008 21.5972C23.2304 21.5972 23.4908 21.5716 23.741 21.4618C24.0113 21.3413 24.2338 21.1327 24.373 20.8695C24.6334 20.3894 24.7067 19.6821 24.7067 18.7553V10.1428C24.5727 8.05412 23.9483 6.87702 23.3417 6.04207C23.2188 5.87506 23.0924 5.71076 22.9625 5.54927L22.9296 5.50842C22.8218 5.37616 22.719 5.23989 22.6212 5.09988C22.4968 4.94373 22.4219 4.75329 22.4064 4.55346C22.4262 4.35056 22.522 4.16298 22.6743 4.02913C22.8265 3.89527 23.0237 3.82526 23.2254 3.83341H32.3128C32.8335 3.83341 33.0079 3.96108 33.0964 4.08108C33.2228 4.24705 33.329 4.59176 33.329 5.31691V16.8786C33.329 18.2523 33.9559 19.1817 34.8659 19.1817C35.9124 19.1817 36.6682 18.5408 37.9877 17.2079L38.0104 17.1824L38.0307 17.1594C40.9906 13.5139 43.409 9.45228 45.2096 5.10243L45.2197 5.07179C45.355 4.68747 45.6111 4.35841 45.9488 4.13482C46.2865 3.91122 46.6874 3.80537 47.0903 3.83341H52.9042C53.6929 3.83341 53.9507 4.03768 54.0367 4.15769C54.1251 4.28535 54.1883 4.55856 54.0367 5.09477C51.9603 9.78366 49.3935 14.2348 46.38 18.3723L46.3597 18.4029C46.069 18.8549 45.748 19.3553 45.7025 19.9273C45.652 20.5452 45.9149 21.1044 46.3774 21.707C46.7136 22.2074 47.4088 22.8943 48.114 23.5914L48.1798 23.6577C48.9179 24.388 49.7192 25.1795 50.3612 25.9456L50.3789 25.9634L50.3966 25.9839C52.3112 27.9129 53.9033 30.1428 55.111 32.5869C55.3031 33.2507 55.1868 33.5929 55.0351 33.7691C54.8607 33.9733 54.4689 34.1648 53.7257 34.1648H47.9573C47.5642 34.1745 47.1751 34.0822 46.8274 33.8967C46.4012 33.6463 46.0144 33.3331 45.6798 32.9673C45.3183 32.6022 44.9265 32.1605 44.4462 31.6217L44.0746 31.2029H44.0721Z" fill="#39405A"/>
</svg>
