<svg width="57" height="57" viewBox="0 0 57 57" fill="none" xmlns="http://www.w3.org/2000/svg">
<path id="Vector" d="M10.4298 41.4766V51.7851L20.7383 49.2383L28.5 57L36.2617 49.2383L46.5702 51.7851V41.4766L57 38.8085L51.7851 28.5L57 18.1915L46.5702 15.5234V5.21489L36.2617 7.7617L28.5 0L20.7383 7.7617L10.4298 5.21489V15.5234L0 18.1915L5.21489 28.5L0 38.8085L10.4298 41.4766ZM9.8234 26.1957L7.51915 21.466L11.6426 20.4957C12.8553 20.2532 13.8053 19.667 14.4926 18.7372C15.1798 17.8074 15.5234 16.7362 15.5234 15.5234V11.8851L19.4043 12.9766H20.7383C22.1128 12.9766 23.3255 12.4511 24.3766 11.4L28.5 7.2766L32.6234 11.4C33.6745 12.4511 34.8872 12.9766 36.2617 12.9766C36.7468 12.9766 37.1915 12.8957 37.5957 12.734L41.4766 11.8851V15.5234C41.4766 16.7362 41.8202 17.8074 42.5074 18.7372C43.1947 19.667 44.1447 20.2532 45.3574 20.4957L49.4809 21.466L47.1766 26.1957C46.3681 27.7319 46.3681 29.2681 47.1766 30.8043L49.4809 35.534L45.3574 36.5043C44.1447 36.7468 43.1947 37.333 42.5074 38.2628C41.8202 39.1926 41.4766 40.2638 41.4766 41.4766V45.1149L37.5957 44.0234H36.2617C34.8872 44.0234 33.6745 44.5489 32.6234 45.6L28.5 49.7234L24.3766 45.6C23.3255 44.5489 22.1128 44.0234 20.7383 44.0234C20.2532 44.0234 19.8085 44.1043 19.4043 44.266L15.5234 45.1149V41.4766C15.5234 40.2638 15.1798 39.1926 14.4926 38.2628C13.8053 37.333 12.8553 36.7468 11.6426 36.5043L7.51915 35.534L9.8234 30.8043C10.6319 29.2681 10.6319 27.7319 9.8234 26.1957ZM25.9532 37.3532L38.0809 25.1043C39.2128 23.9723 39.2128 22.7596 38.0809 21.466C36.8681 20.4149 35.6553 20.4149 34.4426 21.466L25.9532 30.0766L22.5574 26.6809C21.3447 25.6298 20.1319 25.6298 18.9191 26.6809C17.8681 27.8936 17.8681 29.1064 18.9191 30.3191L25.9532 37.3532Z" fill="#39405A"/>
</svg>
