<svg width="60" height="50" viewBox="0 0 60 50" fill="none" xmlns="http://www.w3.org/2000/svg">
<path id="Vector" d="M54.5455 44.4444H60V50H0V44.4444H5.45455V2.77778C5.45455 2.04107 5.74188 1.33453 6.25335 0.813592C6.76481 0.292658 7.4585 0 8.18182 0H35.4545C36.1779 0 36.8716 0.292658 37.383 0.813592C37.8945 1.33453 38.1818 2.04107 38.1818 2.77778V44.4444H43.6364V16.6667H51.8182C52.5415 16.6667 53.2352 16.9593 53.7467 17.4803C54.2581 18.0012 54.5455 18.7077 54.5455 19.4444V44.4444ZM16.3636 22.2222V27.7778H27.2727V22.2222H16.3636ZM16.3636 11.1111V16.6667H27.2727V11.1111H16.3636Z" fill="#39405A"/>
</svg>
