<svg width="21" height="28" viewBox="0 0 21 28" fill="none" xmlns="http://www.w3.org/2000/svg">
<path id="Vector" d="M10.0496 0C4.52099 0 0.0495605 4.382 0.0495605 9.8C0.0495605 17.15 10.0496 28 10.0496 28C10.0496 28 20.0496 17.15 20.0496 9.8C20.0496 4.382 15.5781 0 10.0496 0ZM10.0496 13.3C9.10236 13.3 8.19395 12.9313 7.52418 12.2749C6.85441 11.6185 6.47813 10.7283 6.47813 9.8C6.47813 8.87174 6.85441 7.9815 7.52418 7.32513C8.19395 6.66875 9.10236 6.3 10.0496 6.3C10.9968 6.3 11.9052 6.66875 12.5749 7.32513C13.2447 7.9815 13.621 8.87174 13.621 9.8C13.621 10.7283 13.2447 11.6185 12.5749 12.2749C11.9052 12.9313 10.9968 13.3 10.0496 13.3Z" fill="#39405A"/>
</svg>
