<svg width="57" height="57" viewBox="0 0 57 57" fill="none" xmlns="http://www.w3.org/2000/svg">
<path id="Vector" d="M28.5 0C12.7606 0 0 12.7606 0 28.5C0 44.2394 12.7606 57 28.5 57C44.2394 57 57 44.2394 57 28.5C57 12.7606 44.2394 0 28.5 0ZM41.6538 32.8846H28.5C27.9186 32.8846 27.3609 32.6536 26.9498 32.2425C26.5387 31.8314 26.3077 31.2737 26.3077 30.6923V10.9615C26.3077 10.3801 26.5387 9.82248 26.9498 9.41134C27.3609 9.00021 27.9186 8.76923 28.5 8.76923C29.0814 8.76923 29.6391 9.00021 30.0502 9.41134C30.4613 9.82248 30.6923 10.3801 30.6923 10.9615V28.5H41.6538C42.2353 28.5 42.7929 28.731 43.204 29.1421C43.6152 29.5532 43.8462 30.1109 43.8462 30.6923C43.8462 31.2737 43.6152 31.8314 43.204 32.2425C42.7929 32.6536 42.2353 32.8846 41.6538 32.8846Z" fill="#39405A"/>
</svg>
