<svg width="14" height="15" viewBox="0 0 14 15" fill="none" xmlns="http://www.w3.org/2000/svg">
<g id="free-icon-font-settings-3917051 1" clip-path="url(#clip0_375_1045)">
<g id="Group">
<path id="Vector" d="M0.936946 4C1.41945 3.16257 2.4895 2.87486 3.32693 3.35737C3.3275 3.35769 3.32805 3.35802 3.32862 3.35835L3.5882 3.50828C4.0782 3.08904 4.64142 2.76393 5.24952 2.54928V2.25C5.24952 1.28351 6.03303 0.5 6.99952 0.5C7.96601 0.5 8.74952 1.28351 8.74952 2.25V2.54925C9.3577 2.76425 9.92095 3.08975 10.4108 3.50943L10.6716 3.35893C11.5092 2.87568 12.58 3.16295 13.0633 4.0006C13.5465 4.83822 13.2592 5.90903 12.4216 6.39228L12.1626 6.5416C12.2792 7.176 12.2792 7.82635 12.1626 8.46078L12.4216 8.6101C13.2592 9.09335 13.5465 10.1641 13.0633 11.0018C12.58 11.8394 11.5092 12.1267 10.6716 11.6435L10.412 11.4935C9.92153 11.9122 9.35792 12.2368 8.74952 12.4507V12.75C8.74952 13.7165 7.96601 14.5 6.99952 14.5C6.03303 14.5 5.24952 13.7165 5.24952 12.75V12.4507C4.64134 12.2357 4.07809 11.9102 3.5882 11.4906L3.32745 11.6416C2.4898 12.1249 1.41902 11.8376 0.93577 11C0.452524 10.1624 0.739797 9.09157 1.57745 8.60832L1.83645 8.459C1.71985 7.8246 1.71985 7.17425 1.83645 6.53982L1.57745 6.3905C0.742122 5.90597 0.455778 4.83727 0.936946 4ZM6.99952 9.83332C8.28818 9.83332 9.33284 8.78866 9.33284 7.5C9.33284 6.21134 8.28818 5.16668 6.99952 5.16668C5.71086 5.16668 4.6662 6.21134 4.6662 7.5C4.6662 8.78866 5.71086 9.83332 6.99952 9.83332Z" fill="white"/>
</g>
</g>
<defs>
<clipPath id="clip0_375_1045">
<rect width="14" height="14" fill="white" transform="matrix(1 0 0 -1 0 14.5)"/>
</clipPath>
</defs>
</svg>
